<svg xmlns="http://www.w3.org/2000/svg" width="1228" height="417" viewBox="0 0 1228 417">
  <g id="Grupo_1213156" data-name="Grupo 1213156" transform="translate(-186 -13388.4)">
    <rect id="Rectángulo_465312" data-name="Rectángulo 465312" width="1228" height="417" rx="18" transform="translate(186 13388.4)" fill="#dfefff"/>
    <rect id="Rectángulo_465314" data-name="Rectángulo 465314" width="127.517" height="127.517" rx="18" transform="translate(800.168 13441.732) rotate(45)" fill="#d5aaff"/>
    <path id="Trazado_1286267" data-name="Trazado 1286267" d="M46.047,3.914h4.507a6.211,6.211,0,0,1,2.386.415,3.313,3.313,0,0,1,1.54,1.229,3.54,3.54,0,0,1,.54,2,3.865,3.865,0,0,1-.328,1.664,3.136,3.136,0,0,1-.921,1.154,4.781,4.781,0,0,1-1.39.735l-.789.415H47.674l-.017-1.942h2.914a2.277,2.277,0,0,0,1.087-.232A1.548,1.548,0,0,0,52.31,8.7a2.026,2.026,0,0,0,.22-.963,2.186,2.186,0,0,0-.216-1,1.456,1.456,0,0,0-.656-.647,2.42,2.42,0,0,0-1.1-.224H48.537V16h-2.49ZM52.8,16l-2.756-5.387L52.68,10.6l2.789,5.288V16Zm8.118.166a4.96,4.96,0,0,1-1.876-.336,4.028,4.028,0,0,1-1.407-.934,4.126,4.126,0,0,1-.884-1.39,4.635,4.635,0,0,1-.307-1.689v-.332a5.724,5.724,0,0,1,.291-1.868,4.354,4.354,0,0,1,.834-1.469A3.65,3.65,0,0,1,58.9,7.189a4.406,4.406,0,0,1,1.76-.336,4.278,4.278,0,0,1,1.693.315,3.355,3.355,0,0,1,1.241.9,3.907,3.907,0,0,1,.76,1.39,5.911,5.911,0,0,1,.257,1.8v1H57.469V10.654h4.79v-.183a2.141,2.141,0,0,0-.178-.892,1.441,1.441,0,0,0-.535-.627,1.644,1.644,0,0,0-.913-.232,1.533,1.533,0,0,0-.813.208,1.572,1.572,0,0,0-.552.581,3,3,0,0,0-.315.876,5.442,5.442,0,0,0-.1,1.1v.332a3.107,3.107,0,0,0,.154,1,2.329,2.329,0,0,0,.44.789,1.958,1.958,0,0,0,.7.515,2.277,2.277,0,0,0,.934.183,2.9,2.9,0,0,0,1.208-.253,2.576,2.576,0,0,0,.967-.768l1.162,1.262a3.572,3.572,0,0,1-.768.78,4.11,4.11,0,0,1-1.166.61A4.715,4.715,0,0,1,60.922,16.166Zm9.895-2.191v-4a1.789,1.789,0,0,0-.141-.743,1.06,1.06,0,0,0-.436-.486,1.477,1.477,0,0,0-.76-.174,1.6,1.6,0,0,0-.689.137,1.031,1.031,0,0,0-.448.39,1.1,1.1,0,0,0-.158.594H65.795A2.339,2.339,0,0,1,66.06,8.6a2.751,2.751,0,0,1,.772-.909,3.855,3.855,0,0,1,1.208-.618,5.155,5.155,0,0,1,1.573-.224,4.681,4.681,0,0,1,1.859.349,2.867,2.867,0,0,1,1.282,1.046,3.056,3.056,0,0,1,.469,1.743v3.843a6.522,6.522,0,0,0,.091,1.208,3.188,3.188,0,0,0,.266.818V16H71.165a3.363,3.363,0,0,1-.261-.917A7.1,7.1,0,0,1,70.817,13.975Zm.315-3.445.017,1.353H69.812a2.791,2.791,0,0,0-.822.108,1.565,1.565,0,0,0-.573.3,1.181,1.181,0,0,0-.328.452,1.5,1.5,0,0,0-.1.564,1.085,1.085,0,0,0,.141.552.97.97,0,0,0,.407.382,1.341,1.341,0,0,0,.623.137,1.941,1.941,0,0,0,.938-.216,1.753,1.753,0,0,0,.618-.531,1.117,1.117,0,0,0,.228-.6l.631,1.013a4.267,4.267,0,0,1-.361.706,3.314,3.314,0,0,1-.577.685,2.836,2.836,0,0,1-.838.523,3.02,3.02,0,0,1-1.162.2,3.43,3.43,0,0,1-1.548-.344,2.748,2.748,0,0,1-1.1-.955,2.467,2.467,0,0,1-.4-1.39,2.838,2.838,0,0,1,.266-1.253,2.465,2.465,0,0,1,.784-.926,3.719,3.719,0,0,1,1.3-.573,7.506,7.506,0,0,1,1.81-.2ZM77.59,3.25V16h-2.4V3.25Zm4.5,3.769V16h-2.4V7.019ZM79.541,4.678a1.129,1.129,0,0,1,.365-.863,1.574,1.574,0,0,1,1.955,0,1.123,1.123,0,0,1,.369.863,1.123,1.123,0,0,1-.369.863,1.574,1.574,0,0,1-1.955,0A1.129,1.129,0,0,1,79.541,4.678Zm11.671,9.455V16H84.389V14.132ZM91.079,8.4,85.351,16h-1.6V14.581l5.7-7.562h1.627Zm-.847-1.378V8.895h-6.35V7.019Zm7.33,6.956v-4a1.789,1.789,0,0,0-.141-.743,1.06,1.06,0,0,0-.436-.486,1.477,1.477,0,0,0-.76-.174,1.6,1.6,0,0,0-.689.137,1.031,1.031,0,0,0-.448.39,1.1,1.1,0,0,0-.158.594H92.54A2.339,2.339,0,0,1,92.806,8.6a2.751,2.751,0,0,1,.772-.909,3.855,3.855,0,0,1,1.208-.618,5.155,5.155,0,0,1,1.573-.224,4.681,4.681,0,0,1,1.859.349A2.867,2.867,0,0,1,99.5,8.247a3.056,3.056,0,0,1,.469,1.743v3.843a6.522,6.522,0,0,0,.091,1.208,3.188,3.188,0,0,0,.266.818V16H97.91a3.363,3.363,0,0,1-.261-.917A7.1,7.1,0,0,1,97.562,13.975Zm.315-3.445.017,1.353H96.557a2.791,2.791,0,0,0-.822.108,1.565,1.565,0,0,0-.573.3,1.181,1.181,0,0,0-.328.452,1.5,1.5,0,0,0-.1.564,1.085,1.085,0,0,0,.141.552.97.97,0,0,0,.407.382,1.341,1.341,0,0,0,.623.137,1.941,1.941,0,0,0,.938-.216,1.753,1.753,0,0,0,.618-.531,1.117,1.117,0,0,0,.228-.6l.631,1.013a4.267,4.267,0,0,1-.361.706,3.314,3.314,0,0,1-.577.685,2.836,2.836,0,0,1-.838.523,3.02,3.02,0,0,1-1.162.2,3.43,3.43,0,0,1-1.548-.344,2.748,2.748,0,0,1-1.1-.955,2.467,2.467,0,0,1-.4-1.39,2.838,2.838,0,0,1,.266-1.253,2.465,2.465,0,0,1,.784-.926,3.719,3.719,0,0,1,1.3-.573,7.506,7.506,0,0,1,1.81-.2Z" transform="translate(727 13516.547)" fill="#12263f"/>
    <path id="Trazado_1284857" data-name="Trazado 1284857" d="M0,0V131.194" transform="translate(1014 13531.899) rotate(90)" fill="none" stroke="#19538d" stroke-width="3"/>
    <path id="Trazado_1284863" data-name="Trazado 1284863" d="M0,0V49.506" transform="translate(1108 13600.906) rotate(180)" fill="none" stroke="#19538d" stroke-width="3"/>
    <path id="Trazado_1284861" data-name="Trazado 1284861" d="M0,0V131.607" transform="translate(1025.607 13661.567) rotate(90)" fill="none" stroke="#19538d" stroke-width="3"/>
    <path id="Trazado_1284858" data-name="Trazado 1284858" d="M0,0V131.478" transform="translate(717.478 13531.899) rotate(90)" fill="none" stroke="#19538d" stroke-width="3"/>
    <path id="Trazado_1284859" data-name="Trazado 1284859" d="M0,0V90.744" transform="translate(430.083 13543.9) rotate(45)" fill="none" stroke="#19538d" stroke-width="3"/>
    <path id="Trazado_1284864" data-name="Trazado 1284864" d="M0,0V90.744" transform="translate(1158.334 13531.899) rotate(-135)" fill="none" stroke="#19538d" stroke-width="3"/>
    <path id="Trazado_1284860" data-name="Trazado 1284860" d="M0,0V90.744" transform="translate(750.166 13663.234) rotate(45)" fill="none" stroke="#19538d" stroke-width="3"/>
    <path id="Trazado_1284862" data-name="Trazado 1284862" d="M0,0V90.744" transform="translate(1036.579 13663.234) rotate(45)" fill="none" stroke="#19538d" stroke-width="3"/>
    <rect id="Rectángulo_465313" data-name="Rectángulo 465313" width="188" height="39" rx="19.5" transform="translate(398 13512.4)" fill="#9ecfff"/>
    <path id="Trazado_1286268" data-name="Trazado 1286268" d="M54.7,11.991h2.482a4.528,4.528,0,0,1-.668,2.167,4.042,4.042,0,0,1-1.652,1.478,5.617,5.617,0,0,1-2.544.531,5.154,5.154,0,0,1-2.083-.4,4.351,4.351,0,0,1-1.573-1.158,5.14,5.14,0,0,1-.992-1.826,7.9,7.9,0,0,1-.34-2.4V9.542a7.681,7.681,0,0,1,.353-2.4A5.215,5.215,0,0,1,48.7,5.309a4.473,4.473,0,0,1,1.581-1.162,5.044,5.044,0,0,1,2.059-.407,5.431,5.431,0,0,1,2.552.548A4.027,4.027,0,0,1,56.508,5.8,5.148,5.148,0,0,1,57.2,7.99h-2.49a3.238,3.238,0,0,0-.291-1.241,1.678,1.678,0,0,0-.751-.772,2.9,2.9,0,0,0-1.332-.261,2.4,2.4,0,0,0-1.087.232,2.019,2.019,0,0,0-.78.706A3.425,3.425,0,0,0,50,7.844a8.115,8.115,0,0,0-.154,1.681v.855a8.526,8.526,0,0,0,.141,1.648,3.675,3.675,0,0,0,.436,1.2,1.933,1.933,0,0,0,.764.73,2.422,2.422,0,0,0,1.133.245,2.913,2.913,0,0,0,1.287-.249,1.743,1.743,0,0,0,.776-.739A2.926,2.926,0,0,0,54.7,11.991ZM61.194,3.25V16H58.8V3.25Zm4.5,3.769V16h-2.4V7.019ZM63.145,4.678a1.129,1.129,0,0,1,.365-.863,1.574,1.574,0,0,1,1.955,0,1.123,1.123,0,0,1,.369.863,1.123,1.123,0,0,1-.369.863,1.574,1.574,0,0,1-1.955,0A1.129,1.129,0,0,1,63.145,4.678ZM71.8,16.166a4.96,4.96,0,0,1-1.876-.336A4.028,4.028,0,0,1,68.52,14.9a4.126,4.126,0,0,1-.884-1.39,4.635,4.635,0,0,1-.307-1.689v-.332a5.724,5.724,0,0,1,.291-1.868,4.354,4.354,0,0,1,.834-1.469,3.65,3.65,0,0,1,1.324-.959,4.406,4.406,0,0,1,1.76-.336,4.279,4.279,0,0,1,1.693.315,3.355,3.355,0,0,1,1.241.9,3.907,3.907,0,0,1,.76,1.39,5.911,5.911,0,0,1,.257,1.8v1H68.349V10.654h4.79v-.183a2.141,2.141,0,0,0-.178-.892,1.441,1.441,0,0,0-.535-.627,1.644,1.644,0,0,0-.913-.232,1.533,1.533,0,0,0-.813.208,1.572,1.572,0,0,0-.552.581,3,3,0,0,0-.315.876,5.441,5.441,0,0,0-.1,1.1v.332a3.107,3.107,0,0,0,.154,1,2.329,2.329,0,0,0,.44.789,1.958,1.958,0,0,0,.7.515,2.277,2.277,0,0,0,.934.183,2.9,2.9,0,0,0,1.208-.253,2.576,2.576,0,0,0,.967-.768l1.162,1.262a3.572,3.572,0,0,1-.768.78,4.11,4.11,0,0,1-1.166.61A4.715,4.715,0,0,1,71.8,16.166Zm7.388-7.23V16H76.8V7.019h2.241Zm-.349,2.258h-.647a5.861,5.861,0,0,1,.257-1.8,4.137,4.137,0,0,1,.722-1.37,3.154,3.154,0,0,1,1.108-.872,3.339,3.339,0,0,1,1.44-.3,3.48,3.48,0,0,1,1.154.183,2.241,2.241,0,0,1,.9.581,2.642,2.642,0,0,1,.581,1.054,5.465,5.465,0,0,1,.2,1.6V16H82.154V10.264a2.117,2.117,0,0,0-.166-.93.953.953,0,0,0-.486-.469,1.992,1.992,0,0,0-.784-.137,1.728,1.728,0,0,0-.834.191,1.633,1.633,0,0,0-.581.527,2.5,2.5,0,0,0-.344.784A3.826,3.826,0,0,0,78.842,11.194ZM90.778,7.019V8.712H85.549V7.019ZM86.844,4.8h2.391v8.492a1.371,1.371,0,0,0,.1.6.563.563,0,0,0,.311.286,1.487,1.487,0,0,0,.523.079,3.513,3.513,0,0,0,.4-.021q.178-.021.3-.046l.008,1.76a4.492,4.492,0,0,1-.664.158,4.926,4.926,0,0,1-.789.058A3.343,3.343,0,0,1,88.06,15.9a1.873,1.873,0,0,1-.9-.843,3.2,3.2,0,0,1-.315-1.527Zm9.421,11.364a4.96,4.96,0,0,1-1.876-.336,4.028,4.028,0,0,1-1.407-.934,4.126,4.126,0,0,1-.884-1.39,4.635,4.635,0,0,1-.307-1.689v-.332a5.724,5.724,0,0,1,.291-1.868,4.354,4.354,0,0,1,.834-1.469,3.65,3.65,0,0,1,1.324-.959A4.406,4.406,0,0,1,96,6.853a4.279,4.279,0,0,1,1.693.315,3.355,3.355,0,0,1,1.241.9,3.907,3.907,0,0,1,.76,1.39,5.911,5.911,0,0,1,.257,1.8v1H92.812V10.654H97.6v-.183a2.141,2.141,0,0,0-.178-.892,1.441,1.441,0,0,0-.535-.627,1.644,1.644,0,0,0-.913-.232,1.533,1.533,0,0,0-.813.208,1.572,1.572,0,0,0-.552.581,3,3,0,0,0-.315.876,5.441,5.441,0,0,0-.1,1.1v.332a3.107,3.107,0,0,0,.154,1,2.329,2.329,0,0,0,.44.789,1.958,1.958,0,0,0,.7.515,2.277,2.277,0,0,0,.934.183,2.9,2.9,0,0,0,1.208-.253,2.576,2.576,0,0,0,.967-.768l1.162,1.262a3.572,3.572,0,0,1-.768.78,4.11,4.11,0,0,1-1.166.61A4.715,4.715,0,0,1,96.265,16.166Z" transform="translate(419 13520.4)" fill="#12263f"/>
    <ellipse id="Elipse_13766" data-name="Elipse 13766" cx="63.5" cy="28" rx="63.5" ry="28" transform="translate(315 13594.4)" fill="#ffde92"/>
    <path id="Trazado_1286270" data-name="Trazado 1286270" d="M13.782,16H11.151l.017-1.942h2.615a2.932,2.932,0,0,0,1.652-.444,2.721,2.721,0,0,0,1.017-1.3,5.532,5.532,0,0,0,.344-2.067V9.658a6.162,6.162,0,0,0-.2-1.635,3.3,3.3,0,0,0-.577-1.187,2.432,2.432,0,0,0-.938-.726,3.145,3.145,0,0,0-1.278-.245H11.1V3.914h2.706a5.832,5.832,0,0,1,2.22.411A5.055,5.055,0,0,1,17.775,5.5a5.291,5.291,0,0,1,1.141,1.822,6.573,6.573,0,0,1,.4,2.353v.573a6.582,6.582,0,0,1-.4,2.349,5.271,5.271,0,0,1-1.137,1.822,5.023,5.023,0,0,1-1.751,1.17A5.941,5.941,0,0,1,13.782,16ZM12.562,3.914V16h-2.49V3.914Zm18.395,0V16h-2.49L23.61,7.9V16H21.12V3.914h2.49l4.864,8.11V3.914Zm4.806,0V16H33.281V3.914ZM8.992,17H37.008v1H8.992Z" transform="translate(355.5 13609.232)" fill="#12263f"/>
    <rect id="Rectángulo_465318" data-name="Rectángulo 465318" width="188" height="39" rx="19.5" transform="translate(706 13642.4)" fill="#9ecfff"/>
    <path id="Trazado_1286272" data-name="Trazado 1286272" d="M49.029,5.981,45.742,16H43.094L47.585,3.914H49.27ZM51.76,16l-3.3-10.019L48.2,3.914h1.7L54.417,16Zm-.149-4.5v1.951H45.228V11.5Zm6.167-2.523V16H55.388V7.019h2.25ZM60.484,6.96l-.042,2.216q-.174-.025-.419-.046T59.58,9.11a2.668,2.668,0,0,0-.876.129,1.512,1.512,0,0,0-.979.984,2.871,2.871,0,0,0-.137.813l-.481-.149a6.954,6.954,0,0,1,.174-1.606A4.361,4.361,0,0,1,57.791,8a2.5,2.5,0,0,1,.826-.847,2.108,2.108,0,0,1,1.121-.3,2.932,2.932,0,0,1,.407.029A1.635,1.635,0,0,1,60.484,6.96Zm5.943.058V8.712H61.2V7.019ZM62.493,4.8h2.391v8.492a1.371,1.371,0,0,0,.1.6.563.563,0,0,0,.311.286,1.487,1.487,0,0,0,.523.079,3.513,3.513,0,0,0,.4-.021q.178-.021.3-.046l.008,1.76a4.492,4.492,0,0,1-.664.158,4.926,4.926,0,0,1-.789.058,3.343,3.343,0,0,1-1.374-.261,1.873,1.873,0,0,1-.9-.843,3.2,3.2,0,0,1-.315-1.527Zm7.869,2.216V16h-2.4V7.019ZM68.038,5.931l1.627-2.557h2.6L69.98,5.931ZM76.131,14.3a1.722,1.722,0,0,0,.78-.17,1.308,1.308,0,0,0,.535-.481,1.408,1.408,0,0,0,.2-.735H79.9a2.973,2.973,0,0,1-.506,1.681,3.437,3.437,0,0,1-1.336,1.154,4.136,4.136,0,0,1-1.876.419,4.414,4.414,0,0,1-1.822-.349,3.536,3.536,0,0,1-1.291-.967,4.168,4.168,0,0,1-.772-1.444,5.927,5.927,0,0,1-.257-1.772v-.241A5.956,5.956,0,0,1,72.3,9.613a4.168,4.168,0,0,1,.772-1.444A3.544,3.544,0,0,1,74.355,7.2a4.362,4.362,0,0,1,1.81-.349,4.228,4.228,0,0,1,1.938.423,3.2,3.2,0,0,1,1.312,1.208,3.554,3.554,0,0,1,.486,1.855H77.65a1.91,1.91,0,0,0-.187-.813,1.443,1.443,0,0,0-.515-.585,1.477,1.477,0,0,0-.826-.22,1.52,1.52,0,0,0-.855.22,1.466,1.466,0,0,0-.515.6,2.942,2.942,0,0,0-.253.855,6.838,6.838,0,0,0-.071,1v.241a7.348,7.348,0,0,0,.066,1,2.736,2.736,0,0,0,.253.855,1.472,1.472,0,0,0,.519.589A1.559,1.559,0,0,0,76.131,14.3ZM86.59,13.85V7.019h2.391V16h-2.25Zm.266-1.843.706-.017a6.362,6.362,0,0,1-.208,1.664,3.928,3.928,0,0,1-.623,1.328,2.854,2.854,0,0,1-1.046.872,3.322,3.322,0,0,1-1.486.311,3.748,3.748,0,0,1-1.208-.187,2.364,2.364,0,0,1-.946-.589,2.736,2.736,0,0,1-.614-1.038,4.7,4.7,0,0,1-.22-1.531v-5.8H83.6v5.819a2.059,2.059,0,0,0,.1.672,1.163,1.163,0,0,0,.27.448,1,1,0,0,0,.411.249,1.745,1.745,0,0,0,.527.075,2.005,2.005,0,0,0,1.166-.3,1.605,1.605,0,0,0,.606-.818A3.544,3.544,0,0,0,86.856,12.007ZM93.322,3.25V16h-2.4V3.25ZM94.916,11.6v-.174A5.654,5.654,0,0,1,95.2,9.6a4.212,4.212,0,0,1,.822-1.448A3.726,3.726,0,0,1,97.348,7.2a4.482,4.482,0,0,1,1.81-.344,4.542,4.542,0,0,1,1.818.344,3.749,3.749,0,0,1,1.341.959,4.177,4.177,0,0,1,.826,1.448,5.654,5.654,0,0,1,.282,1.822V11.6a5.627,5.627,0,0,1-.282,1.814,4.221,4.221,0,0,1-.826,1.453,3.7,3.7,0,0,1-1.332.959,4.992,4.992,0,0,1-3.623,0,3.691,3.691,0,0,1-1.336-.959,4.221,4.221,0,0,1-.826-1.453A5.627,5.627,0,0,1,94.916,11.6Zm2.391-.174V11.6a5.288,5.288,0,0,0,.1,1.054,2.73,2.73,0,0,0,.32.859,1.6,1.6,0,0,0,.577.577,1.708,1.708,0,0,0,.872.208,1.673,1.673,0,0,0,.855-.208,1.569,1.569,0,0,0,.573-.577,2.872,2.872,0,0,0,.32-.859,5.083,5.083,0,0,0,.1-1.054v-.174a4.938,4.938,0,0,0-.1-1.033,2.913,2.913,0,0,0-.324-.863,1.569,1.569,0,0,0-1.44-.809,1.616,1.616,0,0,0-.859.216,1.661,1.661,0,0,0-.573.594,2.834,2.834,0,0,0-.32.863A5.137,5.137,0,0,0,97.307,11.426Z" transform="translate(727 13650.4)" fill="#12263f"/>
    <ellipse id="Elipse_13767" data-name="Elipse 13767" cx="63.5" cy="28" rx="63.5" ry="28" transform="translate(622 13724.4)" fill="#ffde92"/>
    <path id="Trazado_1286271" data-name="Trazado 1286271" d="M15.795,3.914V16H13.3L8.449,7.9V16H5.958V3.914h2.49l4.864,8.11V3.914Zm7.321,9.936V7.019h2.391V16h-2.25Zm.266-1.843.706-.017a6.362,6.362,0,0,1-.208,1.664,3.928,3.928,0,0,1-.623,1.328,2.854,2.854,0,0,1-1.046.872,3.322,3.322,0,0,1-1.486.311,3.748,3.748,0,0,1-1.208-.187,2.364,2.364,0,0,1-.946-.589,2.736,2.736,0,0,1-.614-1.038,4.7,4.7,0,0,1-.22-1.531v-5.8h2.391v5.819a2.059,2.059,0,0,0,.1.672,1.163,1.163,0,0,0,.27.448,1,1,0,0,0,.411.249,1.745,1.745,0,0,0,.527.075,2.005,2.005,0,0,0,1.166-.3,1.605,1.605,0,0,0,.606-.818A3.544,3.544,0,0,0,23.382,12.007Zm-2.889-6.2L22.12,3.25h2.6L22.436,5.807Zm9.222,3.071V16h-2.4V7.019h2.25Zm-.332,2.316h-.664a6.236,6.236,0,0,1,.228-1.731,4.157,4.157,0,0,1,.672-1.378,3.068,3.068,0,0,1,1.1-.909,3.39,3.39,0,0,1,1.519-.324,3.228,3.228,0,0,1,1.1.178,2.2,2.2,0,0,1,.859.556,2.554,2.554,0,0,1,.56.979,4.606,4.606,0,0,1,.2,1.44V16H32.563V10.272a2.165,2.165,0,0,0-.166-.946.945.945,0,0,0-.469-.465,1.8,1.8,0,0,0-.726-.133,1.643,1.643,0,0,0-.809.191,1.619,1.619,0,0,0-.569.527,2.423,2.423,0,0,0-.332.784A4.106,4.106,0,0,0,29.383,11.194Zm5.346-.274-.855.108a5.827,5.827,0,0,1,.22-1.635,4.03,4.03,0,0,1,.656-1.328,3.026,3.026,0,0,1,1.083-.892,3.334,3.334,0,0,1,1.494-.32,3.535,3.535,0,0,1,1.179.187,2.25,2.25,0,0,1,.909.589A2.683,2.683,0,0,1,40,8.679a5.347,5.347,0,0,1,.2,1.585V16H37.8V10.264a2.209,2.209,0,0,0-.162-.95.91.91,0,0,0-.465-.457,1.829,1.829,0,0,0-.718-.129,1.6,1.6,0,0,0-.755.17,1.543,1.543,0,0,0-.54.469,2.134,2.134,0,0,0-.324.693A3.247,3.247,0,0,0,34.729,10.92ZM4.879,17H41.121v1H4.879Zm5.715,19.837a1.7,1.7,0,0,0-.1-.585,1.165,1.165,0,0,0-.353-.481,3.191,3.191,0,0,0-.722-.436,10.208,10.208,0,0,0-1.2-.448,14.913,14.913,0,0,1-1.556-.6,6.153,6.153,0,0,1-1.295-.776,3.354,3.354,0,0,1-.88-1.033A3.051,3.051,0,0,1,4.5,29.736a3.206,3.206,0,0,1,.93-1.062,4.462,4.462,0,0,1,1.415-.685,6.345,6.345,0,0,1,1.8-.241,5.3,5.3,0,0,1,2.333.481,3.764,3.764,0,0,1,1.548,1.32,3.408,3.408,0,0,1,.552,1.917H10.6a1.917,1.917,0,0,0-.22-.934,1.553,1.553,0,0,0-.664-.635A2.393,2.393,0,0,0,8.6,29.666a2.622,2.622,0,0,0-1.079.2,1.476,1.476,0,0,0-.647.523,1.307,1.307,0,0,0-.216.735,1.038,1.038,0,0,0,.154.556,1.627,1.627,0,0,0,.461.465,4.136,4.136,0,0,0,.755.407,10.9,10.9,0,0,0,1.038.374,11.2,11.2,0,0,1,1.739.672,5.405,5.405,0,0,1,1.258.838,3.118,3.118,0,0,1,.764,1.054,3.309,3.309,0,0,1,.257,1.336,3.148,3.148,0,0,1-.307,1.411,2.9,2.9,0,0,1-.888,1.054,4.178,4.178,0,0,1-1.386.656,7.027,7.027,0,0,1-3.569-.012,5.237,5.237,0,0,1-1.581-.718,3.624,3.624,0,0,1-1.133-1.229A3.528,3.528,0,0,1,3.8,36.215h2.5a2.335,2.335,0,0,0,.174.955,1.58,1.58,0,0,0,.494.631,2.062,2.062,0,0,0,.764.349,4.129,4.129,0,0,0,.975.108,2.686,2.686,0,0,0,1.067-.183,1.286,1.286,0,0,0,.826-1.237Zm8.16,3.329a4.96,4.96,0,0,1-1.876-.336,4.028,4.028,0,0,1-1.407-.934,4.126,4.126,0,0,1-.884-1.39,4.635,4.635,0,0,1-.307-1.689v-.332a5.724,5.724,0,0,1,.291-1.868,4.354,4.354,0,0,1,.834-1.469,3.65,3.65,0,0,1,1.324-.959,4.406,4.406,0,0,1,1.76-.336,4.278,4.278,0,0,1,1.693.315,3.355,3.355,0,0,1,1.241.9,3.907,3.907,0,0,1,.76,1.39,5.911,5.911,0,0,1,.257,1.8v1H15.3V34.654h4.79v-.183a2.141,2.141,0,0,0-.178-.892,1.441,1.441,0,0,0-.535-.627,1.644,1.644,0,0,0-.913-.232,1.533,1.533,0,0,0-.813.208,1.572,1.572,0,0,0-.552.581,3,3,0,0,0-.315.876,5.441,5.441,0,0,0-.1,1.1v.332a3.107,3.107,0,0,0,.154,1,2.329,2.329,0,0,0,.44.789,1.958,1.958,0,0,0,.7.515,2.277,2.277,0,0,0,.934.183,2.9,2.9,0,0,0,1.208-.253,2.576,2.576,0,0,0,.967-.768l1.162,1.262a3.572,3.572,0,0,1-.768.78,4.11,4.11,0,0,1-1.166.61A4.715,4.715,0,0,1,18.754,40.166Zm7.438-7.188V40H23.8V31.019h2.25ZM28.9,30.96l-.042,2.216q-.174-.025-.419-.046t-.444-.021a2.668,2.668,0,0,0-.876.129,1.512,1.512,0,0,0-.979.984,2.871,2.871,0,0,0-.137.813l-.481-.149a6.954,6.954,0,0,1,.174-1.606A4.361,4.361,0,0,1,26.2,32a2.5,2.5,0,0,1,.826-.847,2.108,2.108,0,0,1,1.121-.3,2.932,2.932,0,0,1,.407.029A1.635,1.635,0,0,1,28.9,30.96Zm3.652.058V40h-2.4V31.019ZM30,28.678a1.129,1.129,0,0,1,.365-.863,1.574,1.574,0,0,1,1.955,0,1.193,1.193,0,0,1,0,1.727,1.574,1.574,0,0,1-1.955,0A1.129,1.129,0,0,1,30,28.678Zm8.658,11.488a4.96,4.96,0,0,1-1.876-.336,4.028,4.028,0,0,1-1.407-.934,4.126,4.126,0,0,1-.884-1.39,4.635,4.635,0,0,1-.307-1.689v-.332a5.724,5.724,0,0,1,.291-1.868,4.354,4.354,0,0,1,.834-1.469,3.65,3.65,0,0,1,1.324-.959,4.406,4.406,0,0,1,1.76-.336,4.278,4.278,0,0,1,1.693.315,3.355,3.355,0,0,1,1.241.9,3.908,3.908,0,0,1,.76,1.39,5.911,5.911,0,0,1,.257,1.8v1H35.206V34.654H40v-.183a2.141,2.141,0,0,0-.178-.892,1.441,1.441,0,0,0-.535-.627,1.644,1.644,0,0,0-.913-.232,1.533,1.533,0,0,0-.813.208,1.572,1.572,0,0,0-.552.581,3,3,0,0,0-.315.876,5.442,5.442,0,0,0-.1,1.1v.332a3.107,3.107,0,0,0,.154,1,2.329,2.329,0,0,0,.44.789,1.958,1.958,0,0,0,.7.515,2.277,2.277,0,0,0,.934.183,2.9,2.9,0,0,0,1.208-.253,2.576,2.576,0,0,0,.967-.768l1.162,1.262a3.572,3.572,0,0,1-.768.78,4.11,4.11,0,0,1-1.166.61A4.715,4.715,0,0,1,38.659,40.166ZM3.223,41H42.777v1H3.223Z" transform="translate(663 13727.4)" fill="#12263f"/>
    <rect id="Rectángulo_465316" data-name="Rectángulo 465316" width="127.517" height="127.517" rx="18" transform="translate(1108.168 13571.4) rotate(45)" fill="#d5aaff"/>
    <path id="Trazado_1286274" data-name="Trazado 1286274" d="M32.837,12.837a1.7,1.7,0,0,0-.1-.585,1.165,1.165,0,0,0-.353-.481,3.191,3.191,0,0,0-.722-.436,10.207,10.207,0,0,0-1.2-.448,14.913,14.913,0,0,1-1.556-.6,6.153,6.153,0,0,1-1.295-.776,3.354,3.354,0,0,1-.88-1.033,2.829,2.829,0,0,1-.32-1.37,2.857,2.857,0,0,1,.332-1.374,3.206,3.206,0,0,1,.93-1.062,4.462,4.462,0,0,1,1.415-.685,6.345,6.345,0,0,1,1.8-.241,5.3,5.3,0,0,1,2.333.481,3.764,3.764,0,0,1,1.548,1.32,3.408,3.408,0,0,1,.552,1.917H32.845a1.917,1.917,0,0,0-.22-.934,1.553,1.553,0,0,0-.664-.635,2.393,2.393,0,0,0-1.116-.232,2.622,2.622,0,0,0-1.079.2,1.476,1.476,0,0,0-.647.523,1.307,1.307,0,0,0-.216.735,1.038,1.038,0,0,0,.154.556,1.627,1.627,0,0,0,.461.465,4.136,4.136,0,0,0,.755.407,10.9,10.9,0,0,0,1.038.374,11.2,11.2,0,0,1,1.739.672,5.405,5.405,0,0,1,1.258.838,3.118,3.118,0,0,1,.764,1.054,3.309,3.309,0,0,1,.257,1.336,3.148,3.148,0,0,1-.307,1.411,2.9,2.9,0,0,1-.888,1.054,4.178,4.178,0,0,1-1.386.656,7.027,7.027,0,0,1-3.569-.012,5.237,5.237,0,0,1-1.581-.718,3.624,3.624,0,0,1-1.133-1.229,3.528,3.528,0,0,1-.423-1.768h2.5a2.335,2.335,0,0,0,.174.955,1.58,1.58,0,0,0,.494.631,2.062,2.062,0,0,0,.764.349,4.129,4.129,0,0,0,.975.108,2.686,2.686,0,0,0,1.067-.183,1.286,1.286,0,0,0,.826-1.237ZM41,16.166a4.96,4.96,0,0,1-1.876-.336,4.028,4.028,0,0,1-1.407-.934,4.126,4.126,0,0,1-.884-1.39,4.635,4.635,0,0,1-.307-1.689v-.332a5.724,5.724,0,0,1,.291-1.868,4.354,4.354,0,0,1,.834-1.469,3.65,3.65,0,0,1,1.324-.959,4.406,4.406,0,0,1,1.76-.336,4.278,4.278,0,0,1,1.693.315,3.355,3.355,0,0,1,1.241.9,3.908,3.908,0,0,1,.76,1.39,5.911,5.911,0,0,1,.257,1.8v1H37.543V10.654h4.79v-.183a2.141,2.141,0,0,0-.178-.892,1.441,1.441,0,0,0-.535-.627,1.644,1.644,0,0,0-.913-.232,1.533,1.533,0,0,0-.813.208,1.572,1.572,0,0,0-.552.581,3,3,0,0,0-.315.876,5.442,5.442,0,0,0-.1,1.1v.332a3.107,3.107,0,0,0,.154,1,2.329,2.329,0,0,0,.44.789,1.958,1.958,0,0,0,.7.515,2.277,2.277,0,0,0,.934.183,2.9,2.9,0,0,0,1.208-.253,2.576,2.576,0,0,0,.967-.768l1.162,1.262a3.572,3.572,0,0,1-.768.78,4.11,4.11,0,0,1-1.166.61A4.715,4.715,0,0,1,41,16.166ZM53.979,14.3a1.722,1.722,0,0,0,.78-.17,1.308,1.308,0,0,0,.535-.481,1.408,1.408,0,0,0,.2-.735h2.25a2.973,2.973,0,0,1-.506,1.681A3.437,3.437,0,0,1,55.9,15.747a4.136,4.136,0,0,1-1.876.419,4.414,4.414,0,0,1-1.822-.349,3.536,3.536,0,0,1-1.291-.967,4.168,4.168,0,0,1-.772-1.444,5.927,5.927,0,0,1-.257-1.772v-.241a5.956,5.956,0,0,1,.257-1.781,4.168,4.168,0,0,1,.772-1.444A3.544,3.544,0,0,1,52.2,7.2a4.363,4.363,0,0,1,1.81-.349,4.228,4.228,0,0,1,1.938.423,3.2,3.2,0,0,1,1.312,1.208,3.554,3.554,0,0,1,.486,1.855H55.5a1.911,1.911,0,0,0-.187-.813A1.443,1.443,0,0,0,54.8,8.94a1.477,1.477,0,0,0-.826-.22,1.52,1.52,0,0,0-.855.22,1.466,1.466,0,0,0-.515.6,2.942,2.942,0,0,0-.253.855,6.837,6.837,0,0,0-.071,1v.241a7.349,7.349,0,0,0,.066,1,2.736,2.736,0,0,0,.253.855,1.472,1.472,0,0,0,.519.589A1.559,1.559,0,0,0,53.979,14.3Zm4.765-2.7v-.174A5.654,5.654,0,0,1,59.025,9.6a4.212,4.212,0,0,1,.822-1.448A3.726,3.726,0,0,1,61.175,7.2a4.482,4.482,0,0,1,1.81-.344A4.542,4.542,0,0,1,64.8,7.2a3.749,3.749,0,0,1,1.341.959A4.177,4.177,0,0,1,66.969,9.6a5.654,5.654,0,0,1,.282,1.822V11.6a5.627,5.627,0,0,1-.282,1.814,4.221,4.221,0,0,1-.826,1.453,3.7,3.7,0,0,1-1.332.959,4.992,4.992,0,0,1-3.623,0,3.691,3.691,0,0,1-1.336-.959,4.221,4.221,0,0,1-.826-1.453A5.626,5.626,0,0,1,58.743,11.6Zm2.391-.174V11.6a5.288,5.288,0,0,0,.1,1.054,2.73,2.73,0,0,0,.32.859,1.6,1.6,0,0,0,.577.577A1.708,1.708,0,0,0,63,14.3a1.673,1.673,0,0,0,.855-.208,1.569,1.569,0,0,0,.573-.577,2.872,2.872,0,0,0,.32-.859,5.083,5.083,0,0,0,.1-1.054v-.174a4.938,4.938,0,0,0-.1-1.033,2.913,2.913,0,0,0-.324-.863,1.569,1.569,0,0,0-1.44-.809,1.616,1.616,0,0,0-.859.216,1.661,1.661,0,0,0-.573.594,2.834,2.834,0,0,0-.32.863A5.137,5.137,0,0,0,61.134,11.426Zm9.978-2.548V16h-2.4V7.019h2.25Zm-.332,2.316h-.664a6.236,6.236,0,0,1,.228-1.731,4.157,4.157,0,0,1,.672-1.378,3.068,3.068,0,0,1,1.1-.909,3.39,3.39,0,0,1,1.519-.324,3.228,3.228,0,0,1,1.1.178,2.2,2.2,0,0,1,.859.556,2.554,2.554,0,0,1,.56.979,4.606,4.606,0,0,1,.2,1.44V16H73.959V10.272a2.165,2.165,0,0,0-.166-.946.945.945,0,0,0-.469-.465,1.8,1.8,0,0,0-.726-.133,1.643,1.643,0,0,0-.809.191,1.619,1.619,0,0,0-.569.527,2.423,2.423,0,0,0-.332.784A4.106,4.106,0,0,0,70.779,11.194Zm5.346-.274-.855.108a5.827,5.827,0,0,1,.22-1.635,4.03,4.03,0,0,1,.656-1.328,3.026,3.026,0,0,1,1.083-.892,3.334,3.334,0,0,1,1.494-.32,3.535,3.535,0,0,1,1.179.187,2.25,2.25,0,0,1,.909.589,2.683,2.683,0,0,1,.581,1.05,5.346,5.346,0,0,1,.2,1.585V16H79.2V10.264a2.209,2.209,0,0,0-.162-.95.91.91,0,0,0-.465-.457,1.829,1.829,0,0,0-.718-.129,1.6,1.6,0,0,0-.755.17,1.543,1.543,0,0,0-.54.469,2.133,2.133,0,0,0-.324.693A3.247,3.247,0,0,0,76.125,10.92Zm9.712-2.175V19.453H83.446V7.019h2.216Zm5.686,2.665v.174a6.9,6.9,0,0,1-.228,1.818,4.551,4.551,0,0,1-.668,1.457,3.11,3.11,0,0,1-1.092.963,3.158,3.158,0,0,1-1.5.344A2.8,2.8,0,0,1,85.592,14.9a5.231,5.231,0,0,1-.66-1.4,11.073,11.073,0,0,1-.382-1.71v-.457a11.459,11.459,0,0,1,.382-1.8,5.174,5.174,0,0,1,.66-1.419A2.935,2.935,0,0,1,86.6,7.185a2.884,2.884,0,0,1,1.415-.332,3.344,3.344,0,0,1,1.507.324,3,3,0,0,1,1.1.93,4.351,4.351,0,0,1,.672,1.444A7.071,7.071,0,0,1,91.523,11.41Zm-2.4.174V11.41a5.492,5.492,0,0,0-.1-1.058,2.882,2.882,0,0,0-.3-.851,1.527,1.527,0,0,0-.531-.569,1.475,1.475,0,0,0-.793-.2,2,2,0,0,0-.834.158,1.394,1.394,0,0,0-.56.457,2.115,2.115,0,0,0-.324.714,4.612,4.612,0,0,0-.133.938v1.154a3.672,3.672,0,0,0,.232,1.1,1.66,1.66,0,0,0,.589.768,1.772,1.772,0,0,0,1.046.282,1.426,1.426,0,0,0,.8-.212,1.592,1.592,0,0,0,.527-.585,2.832,2.832,0,0,0,.291-.863A6.02,6.02,0,0,0,89.124,11.584Zm3.5.017v-.174A5.654,5.654,0,0,1,92.909,9.6a4.212,4.212,0,0,1,.822-1.448A3.726,3.726,0,0,1,95.059,7.2a4.482,4.482,0,0,1,1.81-.344,4.542,4.542,0,0,1,1.818.344,3.749,3.749,0,0,1,1.341.959,4.177,4.177,0,0,1,.826,1.448,5.654,5.654,0,0,1,.282,1.822V11.6a5.627,5.627,0,0,1-.282,1.814,4.221,4.221,0,0,1-.826,1.453,3.7,3.7,0,0,1-1.332.959,4.992,4.992,0,0,1-3.623,0,3.691,3.691,0,0,1-1.336-.959,4.221,4.221,0,0,1-.826-1.453A5.627,5.627,0,0,1,92.627,11.6Zm2.391-.174V11.6a5.288,5.288,0,0,0,.1,1.054,2.73,2.73,0,0,0,.32.859,1.6,1.6,0,0,0,.577.577,1.708,1.708,0,0,0,.872.208,1.673,1.673,0,0,0,.855-.208,1.569,1.569,0,0,0,.573-.577,2.872,2.872,0,0,0,.32-.859,5.083,5.083,0,0,0,.1-1.054v-.174a4.938,4.938,0,0,0-.1-1.033,2.913,2.913,0,0,0-.324-.863,1.569,1.569,0,0,0-1.44-.809,1.616,1.616,0,0,0-.859.216,1.661,1.661,0,0,0-.573.594,2.834,2.834,0,0,0-.32.863A5.137,5.137,0,0,0,95.018,11.426Zm9.928-2.49V16h-2.391V7.019H104.8Zm-.349,2.258h-.647a5.861,5.861,0,0,1,.257-1.8,4.137,4.137,0,0,1,.722-1.37,3.154,3.154,0,0,1,1.108-.872,3.339,3.339,0,0,1,1.44-.3,3.48,3.48,0,0,1,1.154.183,2.241,2.241,0,0,1,.9.581,2.642,2.642,0,0,1,.581,1.054,5.465,5.465,0,0,1,.2,1.6V16h-2.407V10.264a2.117,2.117,0,0,0-.166-.93.953.953,0,0,0-.486-.469,1.992,1.992,0,0,0-.784-.137,1.728,1.728,0,0,0-.834.191,1.633,1.633,0,0,0-.581.527,2.5,2.5,0,0,0-.344.784A3.826,3.826,0,0,0,104.6,11.194Zm11.671,4.972a4.96,4.96,0,0,1-1.876-.336,4.028,4.028,0,0,1-1.407-.934,4.126,4.126,0,0,1-.884-1.39,4.635,4.635,0,0,1-.307-1.689v-.332a5.724,5.724,0,0,1,.291-1.868,4.354,4.354,0,0,1,.834-1.469,3.65,3.65,0,0,1,1.324-.959A4.406,4.406,0,0,1,116,6.853a4.279,4.279,0,0,1,1.693.315,3.355,3.355,0,0,1,1.241.9,3.907,3.907,0,0,1,.76,1.39,5.911,5.911,0,0,1,.257,1.8v1h-7.139V10.654h4.79v-.183a2.141,2.141,0,0,0-.178-.892,1.441,1.441,0,0,0-.535-.627,1.644,1.644,0,0,0-.913-.232,1.533,1.533,0,0,0-.813.208,1.572,1.572,0,0,0-.552.581,3,3,0,0,0-.315.876,5.441,5.441,0,0,0-.1,1.1v.332a3.107,3.107,0,0,0,.154,1,2.329,2.329,0,0,0,.44.789,1.958,1.958,0,0,0,.7.515,2.277,2.277,0,0,0,.934.183,2.9,2.9,0,0,0,1.208-.253,2.576,2.576,0,0,0,.967-.768l1.162,1.262a3.572,3.572,0,0,1-.768.78,4.11,4.11,0,0,1-1.166.61A4.715,4.715,0,0,1,116.268,16.166Z" transform="translate(1036.579 13646.215)" fill="#12263f"/>
    <ellipse id="Elipse_13768" data-name="Elipse 13768" cx="63.5" cy="28" rx="63.5" ry="28" transform="translate(911 13724.4)" fill="#ffde92"/>
    <path id="Trazado_1286273" data-name="Trazado 1286273" d="M10.465,11.991h2.482a4.528,4.528,0,0,1-.668,2.167,4.042,4.042,0,0,1-1.652,1.478,5.617,5.617,0,0,1-2.544.531A5.154,5.154,0,0,1,6,15.763a4.352,4.352,0,0,1-1.573-1.158,5.14,5.14,0,0,1-.992-1.826,7.9,7.9,0,0,1-.34-2.4V9.542a7.681,7.681,0,0,1,.353-2.4,5.215,5.215,0,0,1,1.013-1.83A4.473,4.473,0,0,1,6.04,4.146,5.044,5.044,0,0,1,8.1,3.74a5.431,5.431,0,0,1,2.552.548A4.027,4.027,0,0,1,12.27,5.8a5.148,5.148,0,0,1,.693,2.191h-2.49a3.239,3.239,0,0,0-.291-1.241,1.678,1.678,0,0,0-.751-.772A2.9,2.9,0,0,0,8.1,5.715a2.4,2.4,0,0,0-1.087.232,2.019,2.019,0,0,0-.78.706,3.425,3.425,0,0,0-.469,1.191,8.115,8.115,0,0,0-.154,1.681v.855a8.526,8.526,0,0,0,.141,1.648,3.675,3.675,0,0,0,.436,1.2,1.933,1.933,0,0,0,.764.73,2.422,2.422,0,0,0,1.133.245,2.913,2.913,0,0,0,1.287-.249,1.743,1.743,0,0,0,.776-.739A2.926,2.926,0,0,0,10.465,11.991Zm8.815,1.984v-4a1.789,1.789,0,0,0-.141-.743,1.06,1.06,0,0,0-.436-.486,1.477,1.477,0,0,0-.76-.174,1.6,1.6,0,0,0-.689.137,1.031,1.031,0,0,0-.448.39,1.1,1.1,0,0,0-.158.594H14.258A2.339,2.339,0,0,1,14.524,8.6,2.751,2.751,0,0,1,15.3,7.7,3.855,3.855,0,0,1,16.5,7.077a5.155,5.155,0,0,1,1.573-.224,4.681,4.681,0,0,1,1.859.349,2.867,2.867,0,0,1,1.282,1.046,3.056,3.056,0,0,1,.469,1.743v3.843a6.522,6.522,0,0,0,.091,1.208,3.188,3.188,0,0,0,.266.818V16H19.629a3.363,3.363,0,0,1-.261-.917A7.1,7.1,0,0,1,19.28,13.975ZM19.6,10.53l.017,1.353H18.276a2.791,2.791,0,0,0-.822.108,1.565,1.565,0,0,0-.573.3,1.181,1.181,0,0,0-.328.452,1.5,1.5,0,0,0-.1.564,1.085,1.085,0,0,0,.141.552.97.97,0,0,0,.407.382,1.341,1.341,0,0,0,.623.137,1.941,1.941,0,0,0,.938-.216,1.753,1.753,0,0,0,.618-.531,1.117,1.117,0,0,0,.228-.6l.631,1.013a4.268,4.268,0,0,1-.361.706,3.314,3.314,0,0,1-.577.685,2.836,2.836,0,0,1-.838.523,3.02,3.02,0,0,1-1.162.2,3.43,3.43,0,0,1-1.548-.344,2.748,2.748,0,0,1-1.1-.955,2.467,2.467,0,0,1-.4-1.39,2.838,2.838,0,0,1,.266-1.253A2.465,2.465,0,0,1,15.1,11.3a3.719,3.719,0,0,1,1.3-.573,7.506,7.506,0,0,1,1.81-.2Zm6.275-1.594V16H23.48V7.019h2.241Zm-.349,2.258h-.647a5.861,5.861,0,0,1,.257-1.8,4.137,4.137,0,0,1,.722-1.37,3.154,3.154,0,0,1,1.108-.872,3.339,3.339,0,0,1,1.44-.3,3.48,3.48,0,0,1,1.154.183,2.241,2.241,0,0,1,.9.581,2.642,2.642,0,0,1,.581,1.054,5.465,5.465,0,0,1,.2,1.6V16H28.834V10.264a2.117,2.117,0,0,0-.166-.93.953.953,0,0,0-.486-.469,1.992,1.992,0,0,0-.784-.137,1.728,1.728,0,0,0-.834.191,1.633,1.633,0,0,0-.581.527,2.5,2.5,0,0,0-.344.784A3.826,3.826,0,0,0,25.522,11.194ZM37.459,7.019V8.712H32.229V7.019ZM33.524,4.8h2.391v8.492a1.371,1.371,0,0,0,.1.6.563.563,0,0,0,.311.286,1.487,1.487,0,0,0,.523.079,3.513,3.513,0,0,0,.4-.021q.178-.021.3-.046l.008,1.76a4.492,4.492,0,0,1-.664.158,4.926,4.926,0,0,1-.789.058A3.343,3.343,0,0,1,34.74,15.9a1.873,1.873,0,0,1-.9-.843,3.2,3.2,0,0,1-.315-1.527Zm7.811,2.216V16h-2.4V7.019ZM38.787,4.678a1.129,1.129,0,0,1,.365-.863,1.574,1.574,0,0,1,1.955,0,1.123,1.123,0,0,1,.369.863,1.123,1.123,0,0,1-.369.863,1.574,1.574,0,0,1-1.955,0A1.129,1.129,0,0,1,38.787,4.678Zm9.828,9.363V3.25h2.407V16H48.856Zm-5.678-2.424v-.174a7.032,7.032,0,0,1,.232-1.872,4.358,4.358,0,0,1,.681-1.448,3.1,3.1,0,0,1,1.1-.938,3.262,3.262,0,0,1,1.494-.332,2.784,2.784,0,0,1,1.382.332,3.007,3.007,0,0,1,1.013.942,5.306,5.306,0,0,1,.677,1.436,10.049,10.049,0,0,1,.374,1.805v.382a9.6,9.6,0,0,1-.374,1.743,5.23,5.23,0,0,1-.677,1.407,3.023,3.023,0,0,1-1.017.934,2.825,2.825,0,0,1-1.395.332,3.171,3.171,0,0,1-1.49-.34,3.122,3.122,0,0,1-1.1-.955,4.521,4.521,0,0,1-.677-1.444A6.693,6.693,0,0,1,42.937,11.617Zm2.391-.174v.174a5.828,5.828,0,0,0,.087,1.038,2.779,2.779,0,0,0,.291.851,1.519,1.519,0,0,0,.531.573,1.491,1.491,0,0,0,.8.2A1.729,1.729,0,0,0,48.051,14a1.764,1.764,0,0,0,.61-.768,3.256,3.256,0,0,0,.245-1.129V11.02a4.13,4.13,0,0,0-.145-.942,2.144,2.144,0,0,0-.349-.718,1.584,1.584,0,0,0-.564-.465,1.771,1.771,0,0,0-.793-.166,1.451,1.451,0,0,0-.8.212,1.583,1.583,0,0,0-.535.577,2.881,2.881,0,0,0-.3.859A5.623,5.623,0,0,0,45.328,11.443Zm12.4,2.532v-4a1.789,1.789,0,0,0-.141-.743,1.06,1.06,0,0,0-.436-.486,1.477,1.477,0,0,0-.76-.174,1.6,1.6,0,0,0-.689.137,1.031,1.031,0,0,0-.448.39,1.1,1.1,0,0,0-.158.594H52.707A2.339,2.339,0,0,1,52.973,8.6a2.751,2.751,0,0,1,.772-.909,3.855,3.855,0,0,1,1.208-.618,5.155,5.155,0,0,1,1.573-.224,4.681,4.681,0,0,1,1.859.349,2.867,2.867,0,0,1,1.282,1.046,3.056,3.056,0,0,1,.469,1.743v3.843a6.523,6.523,0,0,0,.091,1.208,3.188,3.188,0,0,0,.266.818V16H58.078a3.363,3.363,0,0,1-.261-.917A7.1,7.1,0,0,1,57.729,13.975Zm.315-3.445.017,1.353H56.725a2.791,2.791,0,0,0-.822.108,1.565,1.565,0,0,0-.573.3,1.181,1.181,0,0,0-.328.452,1.5,1.5,0,0,0-.1.564,1.085,1.085,0,0,0,.141.552.97.97,0,0,0,.407.382,1.341,1.341,0,0,0,.623.137,1.941,1.941,0,0,0,.938-.216,1.753,1.753,0,0,0,.618-.531,1.117,1.117,0,0,0,.228-.6l.631,1.013a4.268,4.268,0,0,1-.361.706,3.314,3.314,0,0,1-.577.685,2.836,2.836,0,0,1-.838.523,3.02,3.02,0,0,1-1.162.2A3.43,3.43,0,0,1,54,15.822a2.748,2.748,0,0,1-1.1-.955,2.467,2.467,0,0,1-.4-1.39,2.838,2.838,0,0,1,.266-1.253,2.465,2.465,0,0,1,.784-.926,3.719,3.719,0,0,1,1.3-.573,7.506,7.506,0,0,1,1.81-.2Zm9.239,3.511V3.25h2.407V16H67.524Zm-5.678-2.424v-.174a7.032,7.032,0,0,1,.232-1.872,4.358,4.358,0,0,1,.681-1.448,3.1,3.1,0,0,1,1.1-.938,3.262,3.262,0,0,1,1.494-.332,2.784,2.784,0,0,1,1.382.332,3.007,3.007,0,0,1,1.013.942,5.306,5.306,0,0,1,.677,1.436,10.049,10.049,0,0,1,.374,1.805v.382a9.6,9.6,0,0,1-.374,1.743,5.23,5.23,0,0,1-.677,1.407,3.023,3.023,0,0,1-1.017.934,2.825,2.825,0,0,1-1.395.332,3.171,3.171,0,0,1-1.49-.34,3.122,3.122,0,0,1-1.1-.955,4.521,4.521,0,0,1-.677-1.444A6.693,6.693,0,0,1,61.606,11.617ZM64,11.443v.174a5.828,5.828,0,0,0,.087,1.038,2.779,2.779,0,0,0,.291.851,1.519,1.519,0,0,0,.531.573,1.491,1.491,0,0,0,.8.2A1.729,1.729,0,0,0,66.719,14a1.764,1.764,0,0,0,.61-.768,3.256,3.256,0,0,0,.245-1.129V11.02a4.13,4.13,0,0,0-.145-.942,2.144,2.144,0,0,0-.349-.718,1.584,1.584,0,0,0-.564-.465,1.771,1.771,0,0,0-.793-.166,1.451,1.451,0,0,0-.8.212,1.583,1.583,0,0,0-.535.577,2.881,2.881,0,0,0-.3.859A5.623,5.623,0,0,0,64,11.443Z" transform="translate(938 13739.4)" fill="#12263f"/>
    <rect id="Rectángulo_465317" data-name="Rectángulo 465317" width="188" height="39" rx="19.5" transform="translate(1014 13512.4)" fill="#9ecfff"/>
    <path id="Trazado_1286276" data-name="Trazado 1286276" d="M52.653,11.692h-3.08V9.75h3.08a2.485,2.485,0,0,0,1.162-.237,1.468,1.468,0,0,0,.656-.66,2.14,2.14,0,0,0,.208-.955,2.435,2.435,0,0,0-.208-1,1.677,1.677,0,0,0-.656-.747,2.151,2.151,0,0,0-1.162-.282H50.436V16h-2.49V3.914h4.707a5.376,5.376,0,0,1,2.436.51,3.7,3.7,0,0,1,1.556,1.407,3.9,3.9,0,0,1,.54,2.05,3.715,3.715,0,0,1-.54,2.025,3.508,3.508,0,0,1-1.556,1.32A5.826,5.826,0,0,1,52.653,11.692ZM62.78,16.166A4.96,4.96,0,0,1,60.9,15.83,4.028,4.028,0,0,1,59.5,14.9a4.126,4.126,0,0,1-.884-1.39,4.635,4.635,0,0,1-.307-1.689v-.332A5.724,5.724,0,0,1,58.6,9.617a4.354,4.354,0,0,1,.834-1.469,3.65,3.65,0,0,1,1.324-.959,4.406,4.406,0,0,1,1.76-.336,4.278,4.278,0,0,1,1.693.315,3.355,3.355,0,0,1,1.241.9,3.907,3.907,0,0,1,.76,1.39,5.911,5.911,0,0,1,.257,1.8v1H59.326V10.654h4.79v-.183a2.141,2.141,0,0,0-.178-.892,1.441,1.441,0,0,0-.535-.627,1.644,1.644,0,0,0-.913-.232,1.533,1.533,0,0,0-.813.208,1.572,1.572,0,0,0-.552.581,3,3,0,0,0-.315.876,5.442,5.442,0,0,0-.1,1.1v.332a3.107,3.107,0,0,0,.154,1,2.329,2.329,0,0,0,.44.789,1.958,1.958,0,0,0,.7.515,2.277,2.277,0,0,0,.934.183,2.9,2.9,0,0,0,1.208-.253,2.576,2.576,0,0,0,.967-.768l1.162,1.262a3.572,3.572,0,0,1-.768.78,4.11,4.11,0,0,1-1.166.61A4.715,4.715,0,0,1,62.78,16.166Zm10.351-2.125V3.25h2.407V16H73.371Zm-5.678-2.424v-.174a7.033,7.033,0,0,1,.232-1.872,4.358,4.358,0,0,1,.681-1.448,3.1,3.1,0,0,1,1.1-.938,3.262,3.262,0,0,1,1.494-.332,2.784,2.784,0,0,1,1.382.332,3.007,3.007,0,0,1,1.013.942,5.306,5.306,0,0,1,.677,1.436,10.049,10.049,0,0,1,.374,1.805v.382a9.6,9.6,0,0,1-.374,1.743,5.23,5.23,0,0,1-.677,1.407,3.023,3.023,0,0,1-1.017.934,2.825,2.825,0,0,1-1.395.332,3.171,3.171,0,0,1-1.49-.34,3.122,3.122,0,0,1-1.1-.955,4.521,4.521,0,0,1-.677-1.444A6.693,6.693,0,0,1,67.453,11.617Zm2.391-.174v.174a5.828,5.828,0,0,0,.087,1.038,2.779,2.779,0,0,0,.291.851,1.519,1.519,0,0,0,.531.573,1.491,1.491,0,0,0,.8.2A1.729,1.729,0,0,0,72.566,14a1.764,1.764,0,0,0,.61-.768,3.256,3.256,0,0,0,.245-1.129V11.02a4.13,4.13,0,0,0-.145-.942,2.144,2.144,0,0,0-.349-.718,1.584,1.584,0,0,0-.564-.465,1.771,1.771,0,0,0-.793-.166,1.451,1.451,0,0,0-.8.212,1.583,1.583,0,0,0-.535.577,2.881,2.881,0,0,0-.3.859A5.623,5.623,0,0,0,69.844,11.443ZM79.921,7.019V16h-2.4V7.019ZM77.372,4.678a1.129,1.129,0,0,1,.365-.863,1.574,1.574,0,0,1,1.955,0,1.123,1.123,0,0,1,.369.863,1.123,1.123,0,0,1-.369.863,1.574,1.574,0,0,1-1.955,0A1.129,1.129,0,0,1,77.372,4.678ZM87.2,14.041V3.25h2.407V16H87.441Zm-5.678-2.424v-.174a7.033,7.033,0,0,1,.232-1.872,4.358,4.358,0,0,1,.681-1.448,3.1,3.1,0,0,1,1.1-.938,3.262,3.262,0,0,1,1.494-.332,2.784,2.784,0,0,1,1.382.332,3.007,3.007,0,0,1,1.013.942,5.306,5.306,0,0,1,.677,1.436,10.049,10.049,0,0,1,.374,1.805v.382a9.6,9.6,0,0,1-.374,1.743,5.23,5.23,0,0,1-.677,1.407,3.023,3.023,0,0,1-1.017.934,2.825,2.825,0,0,1-1.395.332,3.171,3.171,0,0,1-1.49-.34,3.122,3.122,0,0,1-1.1-.955,4.521,4.521,0,0,1-.677-1.444A6.693,6.693,0,0,1,81.523,11.617Zm2.391-.174v.174A5.828,5.828,0,0,0,84,12.655a2.779,2.779,0,0,0,.291.851,1.519,1.519,0,0,0,.531.573,1.491,1.491,0,0,0,.8.2A1.729,1.729,0,0,0,86.636,14a1.764,1.764,0,0,0,.61-.768,3.256,3.256,0,0,0,.245-1.129V11.02a4.13,4.13,0,0,0-.145-.942A2.144,2.144,0,0,0,87,9.359a1.584,1.584,0,0,0-.564-.465,1.771,1.771,0,0,0-.793-.166,1.451,1.451,0,0,0-.8.212,1.583,1.583,0,0,0-.535.577,2.881,2.881,0,0,0-.3.859A5.623,5.623,0,0,0,83.913,11.443Zm7.172.158v-.174A5.654,5.654,0,0,1,91.367,9.6a4.212,4.212,0,0,1,.822-1.448A3.726,3.726,0,0,1,93.517,7.2a4.482,4.482,0,0,1,1.81-.344,4.542,4.542,0,0,1,1.818.344,3.749,3.749,0,0,1,1.341.959A4.177,4.177,0,0,1,99.311,9.6a5.654,5.654,0,0,1,.282,1.822V11.6a5.627,5.627,0,0,1-.282,1.814,4.221,4.221,0,0,1-.826,1.453,3.7,3.7,0,0,1-1.332.959,4.992,4.992,0,0,1-3.623,0,3.691,3.691,0,0,1-1.336-.959,4.221,4.221,0,0,1-.826-1.453A5.627,5.627,0,0,1,91.085,11.6Zm2.391-.174V11.6a5.288,5.288,0,0,0,.1,1.054,2.73,2.73,0,0,0,.32.859,1.6,1.6,0,0,0,.577.577,1.708,1.708,0,0,0,.872.208,1.673,1.673,0,0,0,.855-.208,1.569,1.569,0,0,0,.573-.577,2.872,2.872,0,0,0,.32-.859,5.083,5.083,0,0,0,.1-1.054v-.174a4.938,4.938,0,0,0-.1-1.033,2.913,2.913,0,0,0-.324-.863,1.569,1.569,0,0,0-1.44-.809,1.616,1.616,0,0,0-.859.216,1.661,1.661,0,0,0-.573.594,2.834,2.834,0,0,0-.32.863A5.137,5.137,0,0,0,93.476,11.426Z" transform="translate(1035 13520.4)" fill="#12263f"/>
    <ellipse id="Elipse_13765" data-name="Elipse 13765" cx="63.5" cy="28" rx="63.5" ry="28" transform="translate(1159 13413.4)" fill="#ffde92"/>
    <path id="Trazado_1286280" data-name="Trazado 1286280" d="M3.663,3.914V16H1.173V3.914ZM8.478,9.077V11.02h-5.5V9.077Zm.581-5.163V5.865H2.983V3.914Zm5.254,12.252a4.96,4.96,0,0,1-1.876-.336A4.028,4.028,0,0,1,11.03,14.9a4.126,4.126,0,0,1-.884-1.39,4.635,4.635,0,0,1-.307-1.689v-.332a5.724,5.724,0,0,1,.291-1.868,4.354,4.354,0,0,1,.834-1.469,3.65,3.65,0,0,1,1.324-.959,4.406,4.406,0,0,1,1.76-.336,4.278,4.278,0,0,1,1.693.315,3.355,3.355,0,0,1,1.241.9,3.907,3.907,0,0,1,.76,1.39,5.911,5.911,0,0,1,.257,1.8v1H10.86V10.654h4.79v-.183a2.141,2.141,0,0,0-.178-.892,1.441,1.441,0,0,0-.535-.627,1.644,1.644,0,0,0-.913-.232,1.533,1.533,0,0,0-.813.208,1.572,1.572,0,0,0-.552.581,3,3,0,0,0-.315.876,5.441,5.441,0,0,0-.1,1.1v.332a3.107,3.107,0,0,0,.154,1,2.329,2.329,0,0,0,.44.789,1.958,1.958,0,0,0,.7.515,2.277,2.277,0,0,0,.934.183,2.9,2.9,0,0,0,1.208-.253,2.576,2.576,0,0,0,.967-.768L17.8,14.539a3.572,3.572,0,0,1-.768.78,4.11,4.11,0,0,1-1.166.61A4.715,4.715,0,0,1,14.313,16.166ZM23.071,14.3a1.722,1.722,0,0,0,.78-.17,1.308,1.308,0,0,0,.535-.481,1.408,1.408,0,0,0,.2-.735h2.25a2.973,2.973,0,0,1-.506,1.681A3.437,3.437,0,0,1,25,15.747a4.136,4.136,0,0,1-1.876.419,4.414,4.414,0,0,1-1.822-.349,3.536,3.536,0,0,1-1.291-.967,4.168,4.168,0,0,1-.772-1.444,5.927,5.927,0,0,1-.257-1.772v-.241a5.956,5.956,0,0,1,.257-1.781,4.168,4.168,0,0,1,.772-1.444A3.544,3.544,0,0,1,21.294,7.2a4.363,4.363,0,0,1,1.81-.349,4.228,4.228,0,0,1,1.938.423,3.2,3.2,0,0,1,1.312,1.208,3.554,3.554,0,0,1,.486,1.855H24.59a1.91,1.91,0,0,0-.187-.813,1.443,1.443,0,0,0-.515-.585,1.477,1.477,0,0,0-.826-.22,1.52,1.52,0,0,0-.855.22,1.466,1.466,0,0,0-.515.6,2.942,2.942,0,0,0-.253.855,6.838,6.838,0,0,0-.071,1v.241a7.348,7.348,0,0,0,.066,1,2.736,2.736,0,0,0,.253.855,1.472,1.472,0,0,0,.519.589A1.559,1.559,0,0,0,23.071,14.3ZM30.55,3.25V16H28.159V3.25Zm-.34,7.944h-.656A6.122,6.122,0,0,1,29.8,9.463a4.293,4.293,0,0,1,.689-1.378,3.186,3.186,0,0,1,1.075-.909,2.984,2.984,0,0,1,1.39-.324,3.7,3.7,0,0,1,1.208.187,2.33,2.33,0,0,1,.938.6,2.754,2.754,0,0,1,.61,1.075,5.251,5.251,0,0,1,.216,1.61V16H33.521V10.306a2.156,2.156,0,0,0-.17-.942,1,1,0,0,0-.49-.49,1.891,1.891,0,0,0-.784-.145,1.853,1.853,0,0,0-.876.191,1.513,1.513,0,0,0-.577.527,2.4,2.4,0,0,0-.315.784A4.433,4.433,0,0,0,30.209,11.194Zm12.376,2.781v-4a1.789,1.789,0,0,0-.141-.743,1.06,1.06,0,0,0-.436-.486,1.477,1.477,0,0,0-.76-.174,1.6,1.6,0,0,0-.689.137,1.031,1.031,0,0,0-.448.39,1.1,1.1,0,0,0-.158.594H37.564A2.339,2.339,0,0,1,37.829,8.6,2.751,2.751,0,0,1,38.6,7.7a3.855,3.855,0,0,1,1.208-.618,5.155,5.155,0,0,1,1.573-.224,4.681,4.681,0,0,1,1.859.349,2.867,2.867,0,0,1,1.282,1.046,3.056,3.056,0,0,1,.469,1.743v3.843a6.523,6.523,0,0,0,.091,1.208,3.188,3.188,0,0,0,.266.818V16H42.934a3.363,3.363,0,0,1-.261-.917A7.1,7.1,0,0,1,42.586,13.975ZM42.9,10.53l.017,1.353H41.581a2.791,2.791,0,0,0-.822.108,1.565,1.565,0,0,0-.573.3,1.181,1.181,0,0,0-.328.452,1.5,1.5,0,0,0-.1.564,1.085,1.085,0,0,0,.141.552.97.97,0,0,0,.407.382,1.341,1.341,0,0,0,.623.137,1.941,1.941,0,0,0,.938-.216,1.753,1.753,0,0,0,.618-.531,1.117,1.117,0,0,0,.228-.6l.631,1.013a4.268,4.268,0,0,1-.361.706,3.314,3.314,0,0,1-.577.685,2.836,2.836,0,0,1-.838.523,3.02,3.02,0,0,1-1.162.2,3.43,3.43,0,0,1-1.548-.344,2.748,2.748,0,0,1-1.1-.955,2.467,2.467,0,0,1-.4-1.39,2.838,2.838,0,0,1,.266-1.253,2.465,2.465,0,0,1,.784-.926,3.719,3.719,0,0,1,1.3-.573,7.506,7.506,0,0,1,1.81-.2ZM.094,17H45.906v1H.094Z" transform="translate(1199.5 13428.232)" fill="#12263f"/>
    <path id="Trazado_1286266" data-name="Trazado 1286266" d="M10.944,3.889V16H8.553V6.645l-2.872.913V5.674l5.005-1.785Zm4.117,10.957a1.185,1.185,0,0,1,.369-.888,1.534,1.534,0,0,1,1.967,0,1.253,1.253,0,0,1,0,1.776,1.534,1.534,0,0,1-1.967,0A1.185,1.185,0,0,1,15.061,14.846Zm0-6.848a1.185,1.185,0,0,1,.369-.888,1.534,1.534,0,0,1,1.967,0,1.253,1.253,0,0,1,0,1.776,1.534,1.534,0,0,1-1.967,0A1.185,1.185,0,0,1,15.061,8Zm5.985-4.084h2.108l3.1,8.874,3.1-8.874h2.108L27.106,16H25.412Zm-1.137,0h2.1l.382,8.649V16H19.909Zm10.6,0h2.108V16h-2.49V12.563Z" transform="translate(781 13424.912)" fill="#12263f"/>
    <path id="Trazado_1286275" data-name="Trazado 1286275" d="M14.082,3.914V16h-2.49L6.736,7.9V16H4.245V3.914h2.49l4.864,8.11V3.914Zm2.1,10.932a1.185,1.185,0,0,1,.369-.888,1.534,1.534,0,0,1,1.967,0,1.253,1.253,0,0,1,0,1.776,1.534,1.534,0,0,1-1.967,0A1.185,1.185,0,0,1,16.182,14.846Zm0-6.848a1.185,1.185,0,0,1,.369-.888,1.534,1.534,0,0,1,1.967,0,1.253,1.253,0,0,1,0,1.776,1.534,1.534,0,0,1-1.967,0A1.185,1.185,0,0,1,16.182,8Zm5.985-4.084h2.108l3.1,8.874,3.1-8.874h2.108L28.226,16H26.533Zm-1.137,0h2.1l.382,8.649V16H21.03Zm10.6,0h2.108V16h-2.49V12.563Z" transform="translate(1195 13649.567)" fill="#12263f"/>
    <path id="Trazado_1286269" data-name="Trazado 1286269" d="M20.781,3.889V16H18.39V6.645l-2.872.913V5.674l5.005-1.785Z" transform="translate(574 13500.4)" fill="#12263f"/>
    <path id="Trazado_1286279" data-name="Trazado 1286279" d="M16.186,10.256,18,7.99l-2.64-.747.5-1.461,2.59,1.029-.158-2.9H19.9L19.73,6.869l2.54-1.021.49,1.486-2.681.747,1.76,2.216-1.3.913L19.008,8.787l-1.519,2.349Z" transform="translate(980 13506.4)" fill="#12263f"/>
    <path id="Trazado_1286278" data-name="Trazado 1286278" d="M16.186,10.256,18,7.99l-2.64-.747.5-1.461,2.59,1.029-.158-2.9H19.9L19.73,6.869l2.54-1.021.49,1.486-2.681.747,1.76,2.216-1.3.913L19.008,8.787l-1.519,2.349Z" transform="translate(894 13637.4)" fill="#12263f"/>
    <path id="Trazado_1286277" data-name="Trazado 1286277" d="M16.186,10.256,18,7.99l-2.64-.747.5-1.461,2.59,1.029-.158-2.9H19.9L19.73,6.869l2.54-1.021.49,1.486-2.681.747,1.76,2.216-1.3.913L19.008,8.787l-1.519,2.349Z" transform="translate(1102 13551.4)" fill="#12263f"/>
  </g>
</svg>
